<?xml version="1.0" standalone="no"?>
<svg viewBox="0 0 200 200" xmlns="http://www.w3.org/2000/svg">
  <path fill="#000000" d="M39,-68.6C50.9,-60.7,61.1,-50.9,70.6,-39.2C80,-27.5,88.7,-13.7,88.4,-0.2C88.2,13.4,79,26.9,70.7,40.7C62.5,54.4,55.1,68.6,43.5,73.6C31.8,78.7,15.9,74.6,0.2,74.2C-15.4,73.8,-30.9,77,-41,71.1C-51.2,65.2,-56.2,50.3,-63,36.9C-69.9,23.5,-78.7,11.8,-77.8,0.5C-77,-10.8,-66.7,-21.7,-59.7,-34.8C-52.7,-47.9,-49.1,-63.3,-39.7,-72.7C-30.3,-82.1,-15.2,-85.4,-0.8,-84C13.5,-82.6,27.1,-76.5,39,-68.6Z" transform="translate(100 100)" />
</svg>
